<svg width="726" height="448" viewBox="0 0 726 448" fill="none" xmlns="http://www.w3.org/2000/svg">
<rect opacity="0.3" x="9.05603" y="2.57446" width="716.879" height="444.465" fill="white"/>
<mask id="mask0_40_27" style="mask-type:luminance" maskUnits="userSpaceOnUse" x="0" y="0" width="726" height="444">
<rect width="726" height="444" fill="white"/>
</mask>
<g mask="url(#mask0_40_27)">
<path opacity="0.05" fill-rule="evenodd" clip-rule="evenodd" d="M725.75 -8.53906C725.75 -8.53906 665.992 5.26971 624.235 67.0619C582.478 128.854 621.415 177.08 597.675 214.658C573.935 252.237 520.216 240.714 476.634 268.982C433.053 297.25 406.631 336.836 396.601 376.122C386.572 415.407 383.142 481.871 396.601 487.268C410.06 492.665 725.75 487.268 725.75 487.268L725.75 -8.53906Z" fill="#6FB1FC"/>
<path opacity="0.05" fill-rule="evenodd" clip-rule="evenodd" d="M725.844 33.9644C725.844 33.9644 673 46.1753 636.075 100.817C599.149 155.459 633.581 198.105 612.588 231.335C591.595 264.565 544.092 254.375 505.553 279.373C467.015 304.37 443.65 339.375 434.781 374.115C425.912 408.855 422.879 467.628 434.781 472.4C446.683 477.173 725.844 472.4 725.844 472.4L725.844 33.9644Z" fill="#6FB1FC"/>
<path opacity="0.078" fill-rule="evenodd" clip-rule="evenodd" d="M735.116 75.6321C735.116 75.6321 687.267 86.6888 653.832 136.166C620.397 185.643 651.574 224.258 632.565 254.347C613.556 284.436 570.543 275.209 535.648 297.844C500.752 320.478 479.596 352.175 471.565 383.631C463.535 415.087 460.788 468.304 471.565 472.626C482.342 476.947 735.116 472.626 735.116 472.626V75.6321Z" fill="#6FB1FC"/>
<path opacity="0.05" fill-rule="evenodd" clip-rule="evenodd" d="M5.06828 -8.53906C5.06828 -8.53906 64.8269 5.26971 106.584 67.0619C148.341 128.854 109.403 177.08 133.144 214.658C156.884 252.237 210.603 240.714 254.184 268.982C297.765 297.25 324.188 336.836 334.217 376.122C344.247 415.407 347.676 481.871 334.217 487.268C320.758 492.665 5.06828 487.268 5.06828 487.268L5.06828 -8.53906Z" fill="#6FB1FC"/>
<path opacity="0.05" fill-rule="evenodd" clip-rule="evenodd" d="M4.9752 33.9644C4.9752 33.9644 57.819 46.1753 94.7441 100.817C131.669 155.459 97.2373 198.105 118.231 231.335C139.224 264.565 186.727 254.375 225.265 279.373C263.803 304.37 287.169 339.375 296.038 374.115C304.906 408.855 307.939 467.628 296.038 472.4C284.136 477.173 4.9752 472.4 4.9752 472.4L4.9752 33.9644Z" fill="#6FB1FC"/>
<path opacity="0.078" fill-rule="evenodd" clip-rule="evenodd" d="M-4.29681 75.6321C-4.29681 75.6321 43.552 86.6888 76.9869 136.166C110.422 185.643 79.2445 224.258 98.2535 254.347C117.262 284.436 160.275 275.209 195.171 297.844C230.066 320.478 251.223 352.175 259.254 383.631C267.284 415.087 270.03 468.304 259.254 472.626C248.477 476.947 -4.29681 472.626 -4.29681 472.626L-4.29681 75.6321Z" fill="#6FB1FC"/>
</g>
</svg>
